#!OML:ASF F:\VICON\USERDATA\INSTALL\rory3\rory3.ASF
:FULLY-SPECIFIED
:DEGREES
52
root 0.6799260371654046 17.805059199877327 30.939579072615693 -2.045779104062429 0.3534060927407654 3.8905670409906956
lfemur 9.258424787341426 -2.7932941884036966 -29.45428747388314
ltibia 15.782014792518257
lfoot -17.801082218457015 4.177066129967954
ltoes 0.25343082843845055
rfemur -32.691080265373735 2.374794801562835 15.993283327462422
rtibia 35.648998622495206
rfoot -9.580314050141325 -16.192225193199903
rtoes -0.10266916387142011
lowerback 9.824728464083554 -0.7849516647026092 -4.825946567558157
upperback 0.6613345602324774 -1.5723627528006956 0.7511005213897306
thorax -4.771413753397071 -0.6641341329022336 3.647002491750282
lowerneck -16.767742606046728 -2.688489173703157 -2.9595519035497286
upperneck 20.274594545972317 -3.4379198991379036 1.928159997902365
head 9.180908531499288 -1.6375669098181673 0.696531102038826
lclavicle -2.3741883036495592e-15 -1.3385505195001034e-16
lhumerus -20.65958956704025 -5.989031600642849 82.70589932160046
lradius 27.481364595111682
lwrist 7.023136396922991
lhand -27.178313084434937 24.402659316067595
lfingers 7.1250199999999975
lthumb -0.5923148851074479 54.386114124808685
rclavicle -2.3741883036495592e-15 -1.3385505195001034e-16
rhumerus -30.65355530667732 -19.49058556316907 -79.45422217957976
rradius 24.90562392662436
rwrist 5.066502852104565
rhand -17.22044831573927 22.875694341451737
rfingers 7.1250199999999975
rthumb 9.022536139608464 -6.936792230469396
53
root 0.6127495519640944 17.737580221896245 32.62010273717617 -1.1665009949494192 1.4707978356119207 4.482310774940947
lfemur 14.48127596010697 -2.7246071362478466 -29.374527910080015
ltibia 12.057144372700563
lfoot -17.68989728105334 3.0297977594697914
ltoes -3.0451301233456483
rfemur -31.660642012003443 4.842175502855446 14.661375991950953
rtibia 23.115088264777498
rfoot -9.271652229730442 -18.058807465493366
rtoes -1.7303113759936033
lowerback 9.415096526385598 -1.1440026156801277 -5.532809354606793
upperback 0.5575934783797031 -2.1099131246465226 0.8587514011287359
thorax -4.5987571839441905 -0.9185704428881157 4.314980803773487
lowerneck -16.827129807194535 -2.6741495252334184 -3.01646970265673
upperneck 20.152501100777688 -3.42388720889556 2.0728986260485307
head 9.144029022423855 -1.6245145117816604 0.7522490021932116
lclavicle -1.8192375964165524e-15 2.363036072764315e-16
lhumerus -18.088379932297272 -6.666120795420992 82.35704248321004
lradius 29.420361463511767
lwrist 7.979918531837223
lhand -27.46079726350619 24.1618691437955
lfingers 7.1250199999999975
lthumb -0.8651414302443999 54.137967392799816
rclavicle -1.8192375964165524e-15 2.363036072764315e-16
rhumerus -31.348684482582946 -20.308996153227397 -78.65101234288058
rradius 24.372705234721337
rwrist 6.189732839107654
rhand -17.157706326604437 23.290510166171643
rfingers 7.1250199999999975
rthumb 9.083033817303729 -6.539438840820572
54
root 0.5107498670600125 17.654499605712825 33.19248602192528 -0.7739657370083919 2.0547880008406585 4.327474602827754
lfemur 17.76506426278833 -3.4222667246975726 -29.067138619166887
ltibia 10.70638343669913
lfoot -17.13561769132333 1.1619619492216688
ltoes -7.94971506050716
rfemur -31.03129050550386 5.9489340636359325 14.558740448072438
rtibia 17.31304541716493
rfoot -8.78257750522676 -16.50602165439158
rtoes -3.1854500677691706
lowerback 9.150480225685916 -1.4206468231474174 -5.758842108639198
upperback 0.4977187450161536 -2.4771954997964114 1.0509671211080183
thorax -4.49196796458971 -1.098370365360395 4.60817921489666
lowerneck -16.934230266426457 -2.6594225381931715 -3.0537287843976166
upperneck 20.147690488156485 -3.3976502469331877 2.003514100649846
head 9.151813445096685 -1.6136987488500956 0.7382616549439643
lclavicle -2.117334593277251e-15 3.746940028771557e-17
lhumerus -16.868136938802362 -6.706757139130084 82.15460663364588
lradius 30.685723294971762
lwrist 8.418750798430782
lhand -28.154797054248764 22.919774367847193
lfingers 7.1250199999999975
lthumb -1.5353617018943009 52.885092293031654
rclavicle -2.117334593277251e-15 3.746940028771557e-17
rhumerus -32.15624171306857 -22.06216074227578 -77.56701421781896
rradius 23.36330527364818
rwrist 7.904268307104519
rhand -17.316792779031676 23.312052159271133
rfingers 7.1250199999999975
rthumb 8.929490878166307 -6.540087741978599
55
root 0.41184778727777294 17.60011948022734 34.068469343776165 -0.8962074670156159 2.171896869700543 3.536616405608273
lfemur 19.370791386851693 -4.476308204490494 -28.226884060880923
ltibia 13.318803335805377
lfoot -14.816156857930888 -1.2054252834461807
ltoes -13.130759360992977
rfemur -30.759616908403153 5.67335452254258 16.082064120149386
rtibia 18.86244003415183
rfoot -7.347209283628037 -12.29644587100837
rtoes -3.091789438870904
lowerback 9.073789927635788 -1.5737809327310064 -5.274342230085043
upperback 0.4919179419714609 -2.59961345035015 1.4029669218867133
thorax -4.4535436532569985 -1.1693479047507873 4.6592561164855
lowerneck -17.01465876796891 -2.6015198830997748 -3.015232319976798
upperneck 20.309410516710816 -3.2905835321081445 1.704012707352687
head 9.215980170241636 -1.5816442161915436 0.6613706600012592
lclavicle -2.3498056821621035e-15 -1.1759155193661942e-16
lhumerus -16.8140166766106 -6.0304876407606525 82.28826796241114
lradius 31.428253278557108
lwrist 8.512518936184643
lhand -28.997536498281043 21.63175672685645
lfingers 7.1250199999999975
lthumb -2.3492240313478243 51.5884408685965
rclavicle -2.3498056821621035e-15 -1.1759155193661942e-16
rhumerus -32.97969426380456 -24.39377114254718 -76.08342743603026
rradius 22.083117523651946
rwrist 10.047825721097023
rhand -17.54365266588983 23.087166260266635
rfingers 7.1250199999999975
rthumb 8.710596301135249 -6.763736693735936
